<svg width="512" height="512" viewBox="0 0 512 512" fill="currentColor" xmlns="http://www.w3.org/2000/svg">
<path d="M508.181 238.528C489.451 197.568 416 64 256 64C95.9999 64 22.5493 197.568 3.81861 238.528C1.30422 244.017 0.00268555 249.984 0.00268555 256.021C0.00268555 262.059 1.30422 268.026 3.81861 273.515C22.5493 314.432 95.9999 448 256 448C416 448 489.451 314.432 508.181 273.472C510.691 267.989 511.99 262.03 511.99 256C511.99 249.97 510.691 244.011 508.181 238.528ZM256 405.333C121.451 405.333 58.6666 290.859 42.6666 256.235C58.6666 221.141 121.451 106.667 256 106.667C390.229 106.667 453.035 220.651 469.333 256C453.035 291.349 390.229 405.333 256 405.333Z" fill="currentColor"/>
<path d="M256 149.333C234.903 149.333 214.28 155.589 196.739 167.31C179.198 179.031 165.526 195.69 157.453 215.18C149.379 234.671 147.267 256.118 151.383 276.81C155.499 297.501 165.658 316.507 180.575 331.425C195.493 346.342 214.499 356.501 235.19 360.617C255.882 364.733 277.329 362.621 296.82 354.547C316.31 346.474 332.969 332.802 344.69 315.261C356.411 297.72 362.667 277.097 362.667 256C362.633 227.721 351.384 200.609 331.387 180.613C311.391 160.616 284.279 149.367 256 149.333ZM256 320C243.342 320 230.968 316.246 220.443 309.214C209.919 302.182 201.716 292.186 196.872 280.492C192.028 268.797 190.76 255.929 193.23 243.514C195.699 231.099 201.795 219.696 210.745 210.745C219.696 201.795 231.099 195.699 243.514 193.23C255.929 190.76 268.797 192.028 280.492 196.872C292.186 201.716 302.182 209.919 309.214 220.444C316.246 230.968 320 243.342 320 256C320 272.974 313.257 289.253 301.255 301.255C289.252 313.257 272.974 320 256 320Z" fill="currentColor"/>
</svg>
