<svg width="512" height="512" viewBox="0 0 512 512" fill="currentColor" xmlns="http://www.w3.org/2000/svg">
<g clip-path="url(#clip0_16_129)">
<path d="M192 256C217.316 256 242.064 248.493 263.113 234.428C284.163 220.363 300.569 200.372 310.257 176.984C319.945 153.595 322.479 127.858 317.541 103.029C312.602 78.1989 300.411 55.3915 282.51 37.4904C264.609 19.5893 241.801 7.39845 216.972 2.45954C192.142 -2.47937 166.405 0.0554606 143.017 9.74348C119.628 19.4315 99.6367 35.8376 85.5719 56.8871C71.5071 77.9366 64 102.684 64 128C64.0339 161.937 77.5304 194.475 101.528 218.472C125.525 242.47 158.063 255.966 192 256ZM192 42.6667C208.877 42.6667 225.376 47.6714 239.409 57.048C253.442 66.4245 264.379 79.7518 270.838 95.3444C277.296 110.937 278.986 128.095 275.694 144.648C272.401 161.201 264.274 176.406 252.34 188.34C240.406 200.274 225.201 208.401 208.648 211.694C192.095 214.986 174.937 213.296 159.344 206.838C143.752 200.379 130.424 189.442 121.048 175.409C111.671 161.376 106.667 144.877 106.667 128C106.667 105.368 115.657 83.6634 131.66 67.6603C147.663 51.6572 169.368 42.6667 192 42.6667Z" fill="currentColor"/>
<path d="M448 213.333V149.333H405.333V213.333H341.333V256H405.333V320H448V256H512V213.333H448Z" fill="currentColor"/>
<path d="M278.251 298.667H105.749C77.7133 298.7 50.8352 309.853 31.0107 329.677C11.1862 349.502 0.0338737 376.38 0 404.416L0 512H42.6667V404.416C42.6836 387.691 49.3352 371.655 61.1619 359.828C72.9885 348.002 89.024 341.35 105.749 341.333H278.251C294.976 341.35 311.012 348.002 322.838 359.828C334.665 371.655 341.316 387.691 341.333 404.416V512H384V404.416C383.966 376.38 372.814 349.502 352.989 329.677C333.165 309.853 306.287 298.7 278.251 298.667Z" fill="currentColor"/>
</g>
<defs>
<clipPath id="clip0_16_129">
<rect width="512" height="512" fill="currentColor"/>
</clipPath>
</defs>
</svg>
