<svg width="512" height="512" viewBox="0 0 512 512" fill="currentColor" xmlns="http://www.w3.org/2000/svg">
<g clip-path="url(#clip0_16_197)">
<path d="M405.333 85.3333H106.667C47.7653 85.3333 0 133.077 0 192V320C0 378.901 47.7653 426.667 106.667 426.667H405.333C464.149 426.667 512 378.816 512 320V192C512 133.184 464.149 85.3333 405.333 85.3333ZM173.227 341.333C166.272 341.333 160.235 336.533 158.677 329.749L153.024 305.067H101.632L95.7867 329.835C94.1867 336.576 88.192 341.333 81.2587 341.333C71.6373 341.333 64.5333 332.352 66.7307 322.987L96.8747 195.136C101.163 176.661 121.131 165.141 140.736 173.355C150.101 177.28 156.395 186.283 158.699 196.181L187.776 323.072C189.909 332.416 182.827 341.333 173.227 341.333ZM469.333 320C469.333 355.285 440.619 384 405.333 384H256V128H405.333C440.619 128 469.333 156.715 469.333 192V320ZM437.333 205.141V205.589C437.333 212.843 431.445 218.731 424.192 218.731H417.451C414.869 245.931 404.288 276.992 383.168 301.205C394.731 308.224 408.597 313.237 425.493 314.837C432.213 315.477 437.333 321.152 437.333 327.915V328.363C437.333 336.171 430.592 342.187 422.827 341.44C398.571 339.115 378.901 331.008 362.923 319.637C346.859 331.115 326.955 339.157 302.507 341.44C294.741 342.165 288.021 336.149 288.021 328.341V327.893C288.021 321.045 293.312 315.435 300.139 314.795C316.949 313.195 330.816 308.245 342.315 301.248C335.253 293.163 329.365 284.309 324.544 275.072C320 266.368 326.443 255.957 336.256 255.957H336.469C341.291 255.957 345.792 258.56 348.011 262.827C351.957 270.336 356.885 277.568 362.795 284.203C380.245 264.576 388.224 239.232 390.592 218.688H301.184C293.931 218.688 288.043 212.8 288.043 205.547V205.099C288.043 197.845 293.931 191.957 301.184 191.957H349.333V183.765C349.333 176.512 355.221 170.624 362.475 170.624H362.923C370.176 170.624 376.064 176.512 376.064 183.765V191.957H424.213C431.467 191.957 437.355 197.845 437.355 205.099L437.333 205.141ZM129.387 201.877L146.176 275.2H108.693L125.995 201.877C126.187 201.088 126.869 200.533 127.68 200.533C128.491 200.533 129.216 201.088 129.387 201.877Z" fill="currentColor"/>
</g>
<defs>
<clipPath id="clip0_16_197">
<rect width="512" height="512" fill="currentColor"/>
</clipPath>
</defs>
</svg>
