<svg width="512" height="512" viewBox="0 0 512 512" fill="none" xmlns="http://www.w3.org/2000/svg">
<path d="M399.147 175.147C397.164 173.147 394.804 171.56 392.204 170.477C389.605 169.394 386.816 168.836 384 168.836C381.184 168.836 378.396 169.394 375.796 170.477C373.196 171.56 370.837 173.147 368.854 175.147L271.147 272.853C269.164 274.853 266.804 276.44 264.204 277.523C261.605 278.606 258.816 279.164 256 279.164C253.184 279.164 250.396 278.606 247.796 277.523C245.196 276.44 242.837 274.853 240.853 272.853L143.147 175.147C141.164 173.147 138.804 171.56 136.204 170.477C133.605 169.394 130.816 168.836 128 168.836C125.184 168.836 122.396 169.394 119.796 170.477C117.196 171.56 114.837 173.147 112.853 175.147C108.88 179.144 106.65 184.551 106.65 190.187C106.65 195.823 108.88 201.23 112.853 205.227L210.773 303.147C222.774 315.132 239.04 321.864 256 321.864C272.96 321.864 289.227 315.132 301.227 303.147L399.147 205.227C403.12 201.23 405.35 195.823 405.35 190.187C405.35 184.551 403.12 179.144 399.147 175.147Z" fill="#A6A6A6"/>
</svg>
