<svg width="512" height="512" viewBox="0 0 512 512" fill="none" xmlns="http://www.w3.org/2000/svg">
<path d="M136.747 192H375.254C379.473 192.018 383.592 193.286 387.09 195.645C390.588 198.003 393.309 201.346 394.907 205.251C396.506 209.156 396.91 213.447 396.07 217.582C395.23 221.716 393.183 225.509 390.187 228.48L271.147 347.52C269.164 349.52 266.804 351.107 264.204 352.19C261.605 353.273 258.816 353.83 256 353.83C253.184 353.83 250.396 353.273 247.796 352.19C245.196 351.107 242.837 349.52 240.853 347.52L121.813 228.48C118.818 225.509 116.77 221.716 115.93 217.582C115.09 213.447 115.495 209.156 117.093 205.251C118.692 201.346 121.412 198.003 124.91 195.645C128.409 193.286 132.528 192.018 136.747 192Z" fill="#A6A6A6"/>
</svg>
