<svg width="512" height="512" viewBox="0 0 512 512" fill="currentColor" xmlns="http://www.w3.org/2000/svg">
<path d="M328.533 210.773L230.613 112.853C226.616 108.88 221.209 106.65 215.573 106.65C209.937 106.65 204.53 108.88 200.533 112.853C198.533 114.837 196.946 117.196 195.863 119.796C194.78 122.395 194.223 125.184 194.223 128C194.223 130.816 194.78 133.605 195.863 136.204C196.946 138.804 198.533 141.163 200.533 143.147L298.666 240.853C300.666 242.837 302.253 245.196 303.336 247.796C304.419 250.395 304.977 253.184 304.977 256C304.977 258.816 304.419 261.605 303.336 264.204C302.253 266.804 300.666 269.163 298.666 271.147L200.533 368.853C196.516 372.842 194.248 378.263 194.228 383.925C194.208 389.586 196.438 395.023 200.426 399.04C204.415 403.057 209.837 405.325 215.498 405.345C221.159 405.365 226.596 403.136 230.613 399.147L328.533 301.227C340.518 289.227 347.25 272.96 347.25 256C347.25 239.04 340.518 222.773 328.533 210.773Z" fill="currentColor"/>
</svg>
