<svg width="512" height="512" viewBox="0 0 512 512" fill="none" xmlns="http://www.w3.org/2000/svg">
<g clip-path="url(#clip0_16_160)">
<path d="M256 213.333C239.123 213.333 222.625 218.338 208.592 227.715C194.559 237.091 183.621 250.418 177.163 266.011C170.704 281.604 169.014 298.761 172.307 315.314C175.599 331.867 183.727 347.072 195.661 359.006C207.595 370.94 222.8 379.068 239.353 382.36C255.906 385.653 273.063 383.963 288.656 377.504C304.249 371.046 317.576 360.108 326.952 346.075C336.329 332.042 341.334 315.544 341.334 298.667C341.334 276.035 332.343 254.33 316.34 238.327C300.337 222.324 278.632 213.333 256 213.333ZM256 341.333C247.562 341.333 239.313 338.831 232.296 334.143C225.28 329.454 219.811 322.791 216.582 314.994C213.352 307.198 212.507 298.619 214.154 290.343C215.8 282.066 219.863 274.464 225.83 268.497C231.798 262.53 239.4 258.466 247.677 256.82C255.953 255.174 264.532 256.018 272.328 259.248C280.125 262.477 286.788 267.946 291.476 274.962C296.165 281.979 298.667 290.228 298.667 298.667C298.667 309.983 294.172 320.835 286.17 328.837C278.169 336.838 267.316 341.333 256 341.333Z" fill="#A6A6A6"/>
<path d="M480.768 87.9364L424.064 31.2324C414.184 21.2984 402.431 13.4229 389.486 8.06191C376.541 2.7009 362.662 -0.0391373 348.651 0.00042232H106.667C78.3873 0.0342966 51.2759 11.2832 31.2794 31.2798C11.2828 51.2763 0.0338743 78.3877 0 106.667L0 405.334C0.0338743 433.613 11.2828 460.725 31.2794 480.721C51.2759 500.718 78.3873 511.967 106.667 512H405.333C433.613 511.967 460.724 500.718 480.721 480.721C500.717 460.725 511.966 433.613 512 405.334V163.35C512.04 149.339 509.3 135.459 503.939 122.514C498.578 109.57 490.702 97.8169 480.768 87.9364ZM362.667 44.3738V64.0004C362.667 80.9743 355.924 97.2529 343.922 109.255C331.919 121.258 315.641 128 298.667 128H213.333C196.359 128 180.081 121.258 168.079 109.255C156.076 97.2529 149.333 80.9743 149.333 64.0004V42.6671H348.651C353.372 42.709 358.073 43.2814 362.667 44.3738ZM469.333 405.334C469.333 422.308 462.591 438.586 450.588 450.589C438.586 462.591 422.307 469.334 405.333 469.334H106.667C89.6928 469.334 73.4142 462.591 61.4118 450.589C49.4095 438.586 42.6667 422.308 42.6667 405.334V106.667C42.6667 89.6932 49.4095 73.4146 61.4118 61.4123C73.4142 49.4099 89.6928 42.6671 106.667 42.6671V64.0004C106.701 92.2798 117.949 119.391 137.946 139.388C157.943 159.384 185.054 170.633 213.333 170.667H298.667C325.493 170.584 351.299 160.377 370.925 142.088C390.551 123.799 402.55 98.7757 404.523 72.0218L450.603 118.102C462.559 130.131 469.289 146.39 469.333 163.35V405.334Z" fill="#A6A6A6"/>
</g>
<defs>
<clipPath id="clip0_16_160">
<rect width="512" height="512" fill="white"/>
</clipPath>
</defs>
</svg>
