<svg width="512" height="512" viewBox="0 0 512 512" fill="none" xmlns="http://www.w3.org/2000/svg">
<g clip-path="url(#clip0_16_156)">
<path d="M352 0C262.272 0 192 42.176 192 96V151.189C181.696 149.973 170.987 149.333 160 149.333C70.272 149.333 0 191.509 0 245.333V416C0 469.824 70.272 512 160 512C232.683 512 292.608 484.331 312.747 445.205C325.504 447.061 338.645 448 352 448C441.728 448 512 405.824 512 352V96C512 42.176 441.728 0 352 0ZM469.333 266.667C469.333 291.84 419.157 320 352 320C341.077 320 330.368 319.253 320 317.803V275.477C330.453 276.693 341.163 277.333 352 277.333C398.805 277.333 440.32 265.856 469.333 247.232V266.667ZM42.6667 311.232C71.68 329.856 113.195 341.333 160 341.333C206.805 341.333 248.32 329.856 277.333 311.232V330.667C277.333 355.84 227.157 384 160 384C92.8427 384 42.6667 355.84 42.6667 330.667V311.232ZM469.333 181.333C469.333 206.507 419.157 234.667 352 234.667C340.587 234.667 329.387 233.856 318.592 232.277C314.475 213.355 301.525 196.352 282.197 182.72C303.189 188.693 326.827 192 352 192C398.805 192 440.32 180.523 469.333 161.899V181.333ZM352 42.6667C419.157 42.6667 469.333 70.8267 469.333 96C469.333 121.173 419.157 149.333 352 149.333C284.843 149.333 234.667 121.173 234.667 96C234.667 70.8267 284.843 42.6667 352 42.6667ZM160 192C227.157 192 277.333 220.16 277.333 245.333C277.333 270.507 227.157 298.667 160 298.667C92.8427 298.667 42.6667 270.507 42.6667 245.333C42.6667 220.16 92.8427 192 160 192ZM160 469.333C92.8427 469.333 42.6667 441.173 42.6667 416V396.565C71.68 415.189 113.195 426.667 160 426.667C206.805 426.667 248.32 415.189 277.333 396.565V416C277.333 441.173 227.157 469.333 160 469.333ZM352 405.333C341.077 405.333 330.368 404.587 320 403.136V360.811C330.453 362.027 341.163 362.667 352 362.667C398.805 362.667 440.32 351.189 469.333 332.565V352C469.333 377.173 419.157 405.333 352 405.333Z" fill="#A6A6A6"/>
</g>
<defs>
<clipPath id="clip0_16_156">
<rect width="512" height="512" fill="white"/>
</clipPath>
</defs>
</svg>
