<svg width="512" height="512" viewBox="0 0 512 512" fill="currentColor" xmlns="http://www.w3.org/2000/svg">
<g clip-path="url(#clip0_16_138)">
<path d="M490.666 256C490.666 261.76 488.32 267.093 484.48 271.147L445.44 310.187C433.28 322.347 426.666 338.347 426.666 355.413V405.333C426.666 464.213 378.88 512 320 512H298.666C286.933 512 277.333 502.4 277.333 490.667C277.333 478.933 286.933 469.333 298.666 469.333H320C355.2 469.333 384 440.533 384 405.333V355.413C384 326.827 395.093 300.16 415.146 279.893L439.04 256L415.146 232.107C395.093 212.053 384 185.173 384 156.587V106.667C384 71.4667 355.2 42.6667 320 42.6667H298.666C286.933 42.6667 277.333 33.0667 277.333 21.3333C277.333 9.6 286.933 0 298.666 0H320C378.88 0 426.666 47.7867 426.666 106.667V156.587C426.666 173.653 433.28 189.867 445.44 201.813L484.48 240.853C488.533 244.907 490.666 250.24 490.666 256ZM128 156.587V106.667C128 71.4667 156.8 42.6667 192 42.6667H213.333C225.066 42.6667 234.666 33.0667 234.666 21.3333C234.666 9.6 225.066 0 213.333 0H192C133.12 0 85.333 47.7867 85.333 106.667V156.587C85.333 173.653 78.7197 189.867 66.5597 201.813L27.5197 240.853C23.4663 244.907 21.333 250.24 21.333 256C21.333 261.76 23.6797 267.093 27.5197 271.147L66.5597 310.187C78.7197 322.347 85.333 338.347 85.333 355.413V405.333C85.333 464.213 133.12 512 192 512H213.333C225.066 512 234.666 502.4 234.666 490.667C234.666 478.933 225.066 469.333 213.333 469.333H192C156.8 469.333 128 440.533 128 405.333V355.413C128 326.827 116.906 300.16 96.853 279.893L72.9597 256L96.853 232.107C116.906 212.053 128 185.173 128 156.587Z" fill="currentColor"/>
</g>
<defs>
<clipPath id="clip0_16_138">
<rect width="512" height="512" fill="currentColor"/>
</clipPath>
</defs>
</svg>
