<svg width="512" height="512" viewBox="0 0 512 512" fill="none" xmlns="http://www.w3.org/2000/svg">
<g clip-path="url(#clip0_16_113)">
<path d="M461.995 0H50.0053C22.4 0 0 22.4 0 50.0053V461.995C0 489.6 22.4 512 50.0053 512H461.995C489.6 512 512 489.6 512 461.995V50.0053C512 22.4 489.6 0 461.995 0ZM297.003 284.075H232.789V466.987H181.909V284.075H117.995V242.987H207.499H297.003V284.075ZM462.891 434.56C452.928 452.373 434.624 462.4 415.147 466.56C392.533 471.381 368.491 471.125 345.813 466.88C334.699 464.789 325.077 461.675 316.949 457.493V407.424C326.037 415.04 335.893 420.757 346.539 424.555C357.184 428.373 367.936 430.272 378.773 430.272C388.373 430.272 399.061 429.077 407.339 423.787C413.013 420.16 416.811 414.443 416.811 407.595C416.811 398.272 410.069 391.232 402.795 386.325C392.149 379.157 379.925 374.485 368.128 369.579C350.592 362.283 337.536 353.365 328.917 342.827C313.941 324.501 311.488 295.232 323.051 274.539C332.928 256.875 351.125 246.464 370.325 241.835C391.253 236.8 413.973 236.8 435.2 240.107C444.224 241.515 452.544 243.669 460.16 246.592V293.376C456.405 290.773 452.309 288.469 447.872 286.507C439.125 282.603 429.675 279.957 420.181 278.677C410.688 277.397 400.683 277.184 391.317 279.381C383.936 281.088 376.171 284.523 371.904 291.115C370.133 293.888 369.237 296.981 369.237 300.416C369.237 304.171 370.219 307.541 372.203 310.507C377.216 318.037 386.048 322.88 393.963 326.784C407.872 333.611 422.464 338.731 435.819 346.645C448.789 354.304 460.309 364.971 465.941 379.179C468.651 386.005 470.016 393.963 470.016 403.029C469.995 415.552 467.627 426.069 462.891 434.56Z" fill="#A6A6A6"/>
</g>
<defs>
<clipPath id="clip0_16_113">
<rect width="512" height="512" fill="white"/>
</clipPath>
</defs>
</svg>
