<svg width="512" height="512" viewBox="0 0 512 512" fill="none" xmlns="http://www.w3.org/2000/svg">
<g clip-path="url(#clip0_16_158)">
<path d="M505.745 6.24611C501.744 2.24673 496.319 0 490.662 0C485.005 0 479.58 2.24673 475.579 6.24611L255.995 225.83L36.4114 6.24611C32.4109 2.24673 26.9856 0 21.3288 0C15.6719 0 10.2467 2.24673 6.24611 6.24611C2.24673 10.2467 0 15.6719 0 21.3288C0 26.9856 2.24673 32.4109 6.24611 36.4114L225.83 255.995L6.24611 475.579C2.24673 479.58 0 485.005 0 490.662C0 496.319 2.24673 501.744 6.24611 505.745C10.2467 509.744 15.6719 511.991 21.3288 511.991C26.9856 511.991 32.4109 509.744 36.4114 505.745L255.995 286.161L475.579 505.745C479.58 509.744 485.005 511.991 490.662 511.991C496.319 511.991 501.744 509.744 505.745 505.745C509.744 501.744 511.991 496.319 511.991 490.662C511.991 485.005 509.744 479.58 505.745 475.579L286.161 255.995L505.745 36.4114C509.744 32.4109 511.991 26.9856 511.991 21.3288C511.991 15.6719 509.744 10.2467 505.745 6.24611Z" fill="#A6A6A6"/>
</g>
<defs>
<clipPath id="clip0_16_158">
<rect width="512" height="512" fill="white"/>
</clipPath>
</defs>
</svg>
